<svg id="Layer_1" data-name="Layer 1" xmlns="http://www.w3.org/2000/svg" viewBox="0 0 255.12 255.12"><defs><style>.cls-2{fill:#fff}</style></defs><path fill="#0ea94b" d="M191.34 17.09H63.78L0 127.56l63.78 110.47h127.56l63.78-110.47-63.78-110.47z"/><g id="_29-auction" data-name="29-auction"><g id="Glyph"><path class="cls-2" d="M194.16 199.15h-66.6v-9.51h66.6zM137.07 184.88h47.57V180a4.75 4.75 0 00-4.75-4.75h-38.06a4.76 4.76 0 00-4.76 4.75zM128.67 126.69a46.64 46.64 0 00-11.47-8l-56.62 56.6a6.86 6.86 0 000 9.72l9.73 9.73a6.86 6.86 0 009.72 0l56.62-56.61a47.71 47.71 0 00-8-11.48zM151.3 74.88l-35.55 35.54a59.7 59.7 0 0117.78 11.4A60.71 60.71 0 01145 139.59L180.5 104a59.51 59.51 0 01-17.78-11.4 60.53 60.53 0 01-11.42-17.72z"/><rect class="cls-2" x="84.57" y="64.3" width="68.77" height="27.51" rx="6.88" transform="rotate(-45 118.961 78.055)"/><rect class="cls-2" x="142.94" y="122.66" width="68.77" height="27.51" rx="6.88" transform="rotate(-45 177.323 136.41)"/></g></g></svg>