<svg id="Layer_1" data-name="Layer 1" xmlns="http://www.w3.org/2000/svg" viewBox="0 0 255.12 255.12"><defs><style>.cls-1{fill:#fff}</style></defs><g id="_29-auction" data-name="29-auction"><g id="Glyph"><path class="cls-1" d="M208.7 229.63h-89.28v-12.75h89.28zM132.18 210.5H196V204a6.38 6.38 0 00-6.38-6.38h-51a6.38 6.38 0 00-6.37 6.38zM120.91 132.49a62.91 62.91 0 00-15.38-10.67l-75.9 75.88a9.22 9.22 0 000 13l13 13a9.22 9.22 0 0013 0l75.9-75.9a64.5 64.5 0 00-10.7-15.39zM151.25 63l-47.66 47.64A80.1 80.1 0 01127.43 126a81 81 0 0115.3 23.82l47.66-47.66a79.82 79.82 0 01-23.83-15.28A81.2 81.2 0 01151.25 63z"/><rect class="cls-1" x="61.8" y="48.86" width="92.2" height="36.88" rx="9.22" transform="rotate(-45 107.887 67.302)"/><rect class="cls-1" x="140.04" y="127.09" width="92.2" height="36.88" rx="9.22" transform="rotate(-45 186.131 145.532)"/></g></g></svg>