<svg id="Layer_1" data-name="Layer 1" xmlns="http://www.w3.org/2000/svg" viewBox="0 0 688.57 130.67"><defs><style>.cls-1{fill:#0ea94b}</style></defs><path d="M7.81 43.05h18.56v77.38H7.81zM46.5 60a16.73 16.73 0 00-6-1q-6.7 0-10.4 4t-3.73 11.06l-1.56-17.51a27.36 27.36 0 018.76-10.77 20.05 20.05 0 0111.88-3.84 26.29 26.29 0 019.17 1.52A20.36 20.36 0 0161.78 48L50.9 63a11.5 11.5 0 00-4.4-3zM75.87 115.62q-6.65-5.93-6.64-18 0-11.49 6.71-17.22t20.13-5.74h20.72l1 13.86H96.14c-3.53 0-6.17.75-7.94 2.24s-2.64 3.78-2.64 6.86 1.14 5.62 3.42 7.19 5.74 2.35 10.37 2.35q8.49 0 12.63-1.87t4.14-5.81l1.56 11a13 13 0 01-4.43 6.11 21.75 21.75 0 01-7.64 3.69 36.76 36.76 0 01-9.77 1.23q-13.33.03-19.97-5.89zm40.25-44.24q0-6.48-3.84-10.06t-10.85-3.58a28.16 28.16 0 00-8.79 1.41 27.13 27.13 0 00-7.75 4L73 53.12a30 30 0 0112-8.24 44 44 0 0116.4-2.94 38.34 38.34 0 0116.84 3.39 24.06 24.06 0 0110.7 9.84 30.81 30.81 0 013.69 15.54v49.72h-16.51zM154.21 43.05H172v77.38h-17.79zm45.84 30.49q0-6.93-3.73-10.73T185.74 59q-6.57 0-10.14 3.54t-3.58 10l-1.56-16a27.77 27.77 0 018.83-10.89 21.38 21.38 0 0112.56-3.72q12.38 0 19.19 8.23t6.82 23.3v47h-17.81zM239.48 12.05h17.81v108.38h-17.81zm8.05 79.75l37.94-48.75h19.75l-56.8 69zm18.11-13.71L279 68l30 52.48h-20z"/><path class="cls-1" d="M324.3 115.62q-7.08-5.93-7.08-18 0-11.49 6.49-17.22t19.6-5.74h22l1 12.22h-22.92c-4 0-6.95.89-8.91 2.65s-3 4.46-3 8.09q0 5.88 3.92 8.72t11.89 2.83q8.71 0 13-1.86t4.29-5.82l1.56 10.89a17.86 17.86 0 01-4.95 5.14 21.72 21.72 0 01-6.82 3 34.83 34.83 0 01-8.72 1q-14.27.02-21.35-5.9zm40.33-44.24q0-7.6-4.06-11.81t-11.52-4.22a29.77 29.77 0 00-9.05 1.42 26.73 26.73 0 00-7.86 3.95L321 53.12a29.08 29.08 0 0111.59-8.24 41.93 41.93 0 0116-2.94 36.9 36.9 0 0116.48 3.39 23.51 23.51 0 0110.43 9.84 31.54 31.54 0 013.58 15.54v49.72h-14.45zM396.23 43.05h34.89v13.72h-34.89zm12.34 72.57q-4.36-5.19-4.36-15.32V20.54h15.2v79.91a7.33 7.33 0 001.12 4.36 3.81 3.81 0 003.28 1.53h7.31v14.46h-8.8q-9.39 0-13.75-5.18zM452 12.05h15.2v108.38H452zm47 61.49q0-8.21-4.25-12.67t-11.98-4.47q-7.45 0-11.51 3.87t-4.07 11l-1.56-14.91A27.52 27.52 0 01475 45.7a22.94 22.94 0 0112.79-3.76q12.59 0 19.49 8.23t6.89 23.3v47H499zM549.71 117.59a26.06 26.06 0 01-10.92-11.51Q535 98.51 535 87.85v-12.6q0-10.5 3.76-18a26 26 0 0110.92-11.4q7.15-3.91 17.22-3.91t17.22 3.91a26 26 0 0110.92 11.4q3.75 7.5 3.76 18v12.83q0 10.58-3.76 18.07a26.1 26.1 0 01-10.92 11.44q-7.15 4-17.22 4t-17.19-4zm29.55-15.5q4.37-5 4.36-14V75.25q0-9-4.36-13.93c-2.9-3.28-7-4.92-12.33-4.92s-9.43 1.6-12.34 4.92-4.36 7.92-4.36 13.93v12.83q0 9 4.36 14t12.34 5c5.31 0 9.43-1.66 12.33-4.99zM620.44 43.05h15.21v77.38h-15.21zm47 30.49q0-8.21-4.24-12.67t-11.97-4.47q-7.46 0-11.52 4t-4.06 11.1l-1.56-14.9a27.55 27.55 0 019.35-10.81 22.71 22.71 0 0112.78-3.8q12.6 0 19.5 8.23t6.89 23.3v47H667.4z"/></svg>