<?xml version="1.0" standalone="no"?>
<!DOCTYPE svg PUBLIC "-//W3C//DTD SVG 20010904//EN"
 "http://www.w3.org/TR/2001/REC-SVG-20010904/DTD/svg10.dtd">
<svg version="1.0" xmlns="http://www.w3.org/2000/svg"
 width="700.000000pt" height="700.000000pt" viewBox="0 0 700.000000 700.000000"
 preserveAspectRatio="xMidYMid meet">
<metadata>
Created by potrace 1.11, written by Peter Selinger 2001-2013
</metadata>
<g transform="translate(0.000000,700.000000) scale(0.100000,-0.100000)"
fill="#000000" stroke="none">
<path d="M3395 6277 c-72 -34 -1528 -1489 -1559 -1557 -28 -63 -27 -152 4
-213 16 -32 91 -114 239 -260 234 -231 247 -239 353 -239 101 1 88 -11 877
779 405 406 746 752 757 768 49 72 54 172 13 251 -27 50 -401 428 -457 461
-64 38 -160 42 -227 10z"/>
<path d="M3496 4620 c-357 -358 -647 -652 -645 -654 2 -2 65 -35 139 -73 199
-102 367 -218 499 -346 120 -116 271 -335 366 -529 l62 -127 649 650 c357 357
651 651 652 654 2 2 -18 13 -45 25 -268 121 -528 303 -666 470 -129 155 -217
290 -307 473 -29 59 -53 107 -54 107 -1 0 -293 -293 -650 -650z"/>
<path d="M5593 4149 c-23 -4 -59 -19 -80 -32 -55 -36 -1508 -1496 -1528 -1536
-26 -52 -30 -130 -10 -192 16 -48 39 -75 224 -262 113 -115 226 -221 251 -235
60 -36 173 -38 235 -5 62 34 1529 1508 1550 1558 26 60 22 146 -9 208 -34 71
-412 448 -477 476 -54 24 -101 30 -156 20z"/>
<path d="M1843 2607 c-740 -741 -1059 -1065 -1075 -1097 -32 -63 -34 -151 -5
-214 33 -71 413 -450 486 -484 69 -32 158 -28 223 11 24 14 514 497 1090 1074
l1048 1048 -50 89 c-54 97 -162 244 -231 317 -87 91 -231 198 -361 268 l-73
40 -1052 -1052z"/>
<path d="M3733 1560 c-40 -18 -85 -67 -97 -105 -5 -17 -10 -179 -7 -220 1 -7
294 -10 874 -10 l872 0 1 113 c1 107 -1 116 -26 156 -17 26 -44 51 -69 63 -40
20 -56 21 -775 21 -683 0 -736 -1 -773 -18z"/>
<path d="M3278 1033 c-2 -10 -3 -88 -3 -173 l1 -155 1224 0 1225 0 1 173 1
172 -1222 0 c-1156 0 -1223 -1 -1227 -17z"/>
</g>
</svg>
