<svg id="Layer_1" data-name="Layer 1" xmlns="http://www.w3.org/2000/svg" viewBox="0 0 255.12 255.12"><defs><style>.cls-2{fill:#fff}</style></defs><path fill="#0ea94b" d="M0 0h255.12v255.12H0z"/><g id="_29-auction" data-name="29-auction"><g id="Glyph"><path class="cls-2" d="M208.82 229.63h-89.28v-12.75h89.28zM132.29 210.5h63.78V204a6.38 6.38 0 00-6.38-6.38h-51a6.38 6.38 0 00-6.38 6.38zM121 132.49a62.91 62.91 0 00-15.38-10.67L29.75 197.7a9.22 9.22 0 000 13l13 13a9.22 9.22 0 0013 0l75.9-75.9A64.5 64.5 0 00121 132.49zM151.37 63l-47.66 47.64A80.22 80.22 0 01127.55 126a81.42 81.42 0 0115.3 23.82l47.66-47.66a80 80 0 01-23.84-15.28A81.37 81.37 0 01151.37 63z"/><rect class="cls-2" x="61.91" y="48.86" width="92.2" height="36.88" rx="9.22" transform="rotate(-45 108.016 67.298)"/><rect class="cls-2" x="140.16" y="127.09" width="92.2" height="36.88" rx="9.22" transform="rotate(-45 186.26 145.529)"/></g></g></svg>