<svg id="Layer_1" data-name="Layer 1" xmlns="http://www.w3.org/2000/svg" viewBox="0 0 1030.91 255.12"><defs><style>.cls-1{fill:#0ea94b}.cls-2{fill:#fff}</style></defs><path class="cls-1" d="M193.73 28.66H79.54l-57.1 98.9 57.1 98.9h114.19l57.1-98.9-57.1-98.9z"/><g id="_29-auction" data-name="29-auction"><g id="Glyph"><path class="cls-2" d="M196.26 191.65h-59.62v-8.52h59.62zM145.15 178.87h42.59v-4.32a4.26 4.26 0 00-4.26-4.26h-34.07a4.26 4.26 0 00-4.26 4.26zM137.63 126.78a42.16 42.16 0 00-10.27-7.13l-50.69 50.67a6.17 6.17 0 000 8.71l8.71 8.71a6.17 6.17 0 008.71 0l50.68-50.68a42.72 42.72 0 00-7.14-10.28zM157.89 80.4l-31.83 31.82a53.27 53.27 0 0115.94 10.2 54.39 54.39 0 0110.22 15.91L184 106.51a53.55 53.55 0 01-15.89-10.21 54.21 54.21 0 01-10.22-15.9z"/><rect class="cls-2" x="98.15" y="70.93" width="61.57" height="24.63" rx="6.16" transform="rotate(-45 128.931 83.245)"/><rect class="cls-2" x="150.4" y="123.17" width="61.57" height="24.63" rx="6.16" transform="rotate(-45 181.188 135.48)"/></g></g><path d="M301 99.21h18.56v77.37H301zm38.69 17a16.77 16.77 0 00-6-1q-6.71 0-10.4 4t-3.69 11.07L318 112.7a27.57 27.57 0 018.75-10.77 20.1 20.1 0 0111.89-3.84 26.06 26.06 0 019.17 1.53 20.31 20.31 0 017.16 4.51l-10.89 15a11.48 11.48 0 00-4.37-2.96zM369.07 171.77q-6.63-5.93-6.63-18 0-11.47 6.71-17.22t20.12-5.74H410l1 13.87h-21.65q-5.3 0-7.94 2.23c-1.76 1.49-2.65 3.78-2.65 6.86s1.15 5.63 3.43 7.19 5.74 2.35 10.36 2.35q8.51 0 12.64-1.86t4.14-5.81l1.56 11a13 13 0 01-4.43 6.11 21.75 21.75 0 01-7.64 3.69 36.81 36.81 0 01-9.77 1.23q-13.33.03-19.98-5.9zm40.26-44.24q0-6.48-3.84-10.06t-10.85-3.58a28.17 28.17 0 00-8.79 1.42 27 27 0 00-7.76 4l-11.85-10a30 30 0 0111.93-8.31 43.73 43.73 0 0116.4-3 38.34 38.34 0 0116.84 3.39 24.06 24.06 0 0110.7 9.84 30.81 30.81 0 013.69 15.54v49.72h-16.47zM447.41 99.21h17.82v77.37h-17.82zm45.85 30.49c0-4.63-1.25-8.2-3.73-10.74s-6-3.8-10.58-3.8q-6.57 0-10.14 3.54t-3.58 10l-1.57-16a27.77 27.77 0 018.84-10.88 21.32 21.32 0 0112.56-3.73q12.36 0 19.19 8.24t6.82 23.29v47h-17.81zM532.69 68.2h17.81v108.38h-17.81zm8 79.76l37.94-48.75h19.75l-56.8 69zm18.11-13.72l13.34-10.14 30 52.48h-19.96z"/><path class="cls-1" d="M617.51 171.77q-7.08-5.93-7.08-18 0-11.47 6.49-17.22t19.6-5.74h22l1 12.23h-23q-6 0-8.9 2.64t-3 8.09q0 5.89 3.92 8.72c2.6 1.89 6.57 2.84 11.88 2.84q8.73 0 13-1.87t4.29-5.81l1.56 10.88a17.74 17.74 0 01-4.95 5.14 21.49 21.49 0 01-6.82 3 34.89 34.89 0 01-8.73 1q-14.18.03-21.26-5.9zm40.33-44.24q0-7.59-4.06-11.81t-11.52-4.21a29.76 29.76 0 00-9.06 1.41 26.87 26.87 0 00-7.86 4l-11.11-7.61a29 29 0 0111.59-8.31 41.74 41.74 0 0116-3 36.82 36.82 0 0116.47 3.39 23.53 23.53 0 0110.44 9.84 31.54 31.54 0 013.58 15.54v49.72h-14.47zM689.44 99.21h34.89v13.71h-34.89zm12.34 72.56q-4.37-5.18-4.36-15.31V76.7h15.2v79.9a7.31 7.31 0 001.12 4.36 3.81 3.81 0 003.28 1.53h7.31V177h-8.8q-9.39 0-13.75-5.23zM745.2 68.2h15.2v108.38h-15.2zm47 61.5q0-8.2-4.25-12.68T776 112.55q-7.46 0-11.52 3.88t-4.06 11l-1.56-14.91a27.52 27.52 0 019.35-10.62A22.92 22.92 0 01781 98.09q12.59 0 19.49 8.24t6.89 23.29v47h-15.2zM842.92 173.75A26.08 26.08 0 01832 162.23q-3.76-7.56-3.77-18.22v-12.6q0-10.51 3.77-18A25.92 25.92 0 01842.92 102q7.16-3.9 17.22-3.91t17.21 3.91a25.92 25.92 0 0110.92 11.41q3.76 7.49 3.77 18v12.82q0 10.59-3.77 18.08a26.2 26.2 0 01-10.92 11.44q-7.15 3.94-17.21 3.95t-17.22-3.95zm29.55-15.51q4.37-5 4.36-14v-12.83q0-9-4.36-13.94t-12.33-4.92q-8 0-12.34 4.92t-4.36 13.94v12.82q0 9 4.36 14t12.34 5q7.97.01 12.33-4.99zM913.65 99.21h15.21v77.37h-15.21zm47 30.49q0-8.2-4.25-12.68t-11.92-4.47q-7.46 0-11.52 4t-4.06 11.11l-1.57-14.91a27.72 27.72 0 019.36-10.81 22.79 22.79 0 0112.78-3.8q12.6 0 19.49 8.24t6.9 23.29v47h-15.25z"/></svg>